# xmcd
#
# Track frame offsets:
#	150
#	22473
#	35198
#	51947
#	68842
#	87587
#	104645
#	125068
#	139840
#	156313
#	172232
#	183617
#	201850
#	218497
#	230778
#
# Disc length: 3284 seconds
#
# Revision: 0
# Processed by: cddbd v1.5.2PL0 Copyright (c) Steve Scherf et al.
# Submitted via: EasyCDDAExtractor 16.0.6.1
#
DISCID=f80cd20f
DTITLE=V.A  - Ti Amo 2 The Ultimate Italian Treasures Cd2
DYEAR=2012
DGENRE=Acoustic
TTITLE0=Umberto Tozzi  - Gloria
TTITLE1=Renato E I Profeti - Gocce di pioggia
TTITLE2=Sandro Giacobbe - Sara  la nostalgia
TTITLE3=Gigliola Cinquetti - Alle porte del sole
TTITLE4=Marcella Bella - Mi... ti... amo
TTITLE5=Heather Parisi - Ti rockero
TTITLE6=Ornella Vanoni - Uomo mio bambino mio
TTITLE7=Ricchi e Poveri - Una musica
TTITLE8=Camaleonti - Io per lei
TTITLE9=Marisa Sannia - Casa bianca
TTITLE10=Gianni Pettenati - Bandera gialla
TTITLE11=Riccardo Fogli - Che ne sai
TTITLE12=Massimo Ranieri - Erba di casa mia
TTITLE13=Sergio Endrigo - Chiedi al tuo cuore
TTITLE14=Claudio Villa - O sole mio
EXTD=
EXTT0=
EXTT1=
EXTT2=
EXTT3=
EXTT4=
EXTT5=
EXTT6=
EXTT7=
EXTT8=
EXTT9=
EXTT10=
EXTT11=
EXTT12=
EXTT13=
EXTT14=
PLAYORDER=
